<svg id="Layer_1" data-name="Layer 1" xmlns="http://www.w3.org/2000/svg" width="300" height="300" viewBox="0 0 300 300">
  <defs>
    <style>
      .cls-1 {
        fill: #201d1d;
      }
    </style>
  </defs>
  <path class="cls-1" d="M277.277,117.428,157.611,10.408a11.411,11.411,0,0,0-15.144-.067L22.8,115.463a11.424,11.424,0,0,0-3.88,8.576v50.022a11.406,11.406,0,0,0,3.807,8.509L142.394,289.593c.2.18.43.31.64.473.276.215.545.433.841.622a11.277,11.277,0,0,0,1.035.562c.288.145.567.3.869.421a11.333,11.333,0,0,0,1.249.388c.271.073.531.169.81.223a10.86,10.86,0,0,0,4.33,0c.278-.054.538-.15.809-.223a11.349,11.349,0,0,0,1.25-.388c.3-.12.579-.275.867-.42a11.336,11.336,0,0,0,1.038-.563c.295-.189.563-.407.838-.621.212-.163.44-.293.641-.474L277.277,182.57a11.406,11.406,0,0,0,3.807-8.509V125.937A11.406,11.406,0,0,0,277.277,117.428Zm-19.025,51.527-.245.22-41.581-21.914L164.665,47.343l93.587,83.7Zm-64.437-15.717L149.93,193.961l-44.721-40.75,44.7-84.718Zm-104.7,16.194,49.476,45.078v41.05L59.178,184.543Zm72.308,45.015,48.361-44.879,30.067,15.848L161.419,255.56ZM135.53,46.825,82.6,147.142,41.748,167.763V129.206Z"/>
</svg>
