<svg id="Layer_1" data-name="Layer 1" xmlns="http://www.w3.org/2000/svg" width="300" height="300" viewBox="0 0 300 300">
  <defs>
    <style>
      .cls-1 {
        fill: #201d1d;
      }
    </style>
  </defs>
  <path class="cls-1" d="M285.908,109.179a10.249,10.249,0,0,0-1.961-6.039c-.068-.1-.091-.221-.163-.319L236.209,37.342A11.441,11.441,0,0,0,230.5,33.2L153.528,8.184c-.118-.039-.245-.023-.364-.058a10.263,10.263,0,0,0-6.344.005c-.114.033-.235.019-.348.055L69.5,33.2a11.441,11.441,0,0,0-5.708,4.147L16.216,102.821c-.073.1-.1.224-.166.326a10.232,10.232,0,0,0-1.958,6.032c0,.12-.056.232-.056.353v80.937a11.429,11.429,0,0,0,2.18,6.711l47.575,65.476c.071.1.181.159.255.256a11.323,11.323,0,0,0,2.27,2.269c.133.1.289.126.424.216A11.413,11.413,0,0,0,69.5,266.8l.05.017.013,0,76.91,24.99a11.432,11.432,0,0,0,7.056,0l76.91-24.99.013,0,.05-.017a11.413,11.413,0,0,0,2.759-1.406c.135-.09.291-.119.424-.216a11.281,11.281,0,0,0,2.271-2.27c.074-.1.183-.157.254-.255l47.575-65.476a11.429,11.429,0,0,0,2.18-6.711V109.532C285.964,109.411,285.912,109.3,285.908,109.179Zm-29.833-5.65-22.956,7.458-71.7-52.095V34.755l58.5,19.008ZM191.839,207.584H108.166L82.308,128,150,78.822l67.692,49.183ZM80.084,53.763l58.5-19.008V58.892l-71.7,52.095-22.956-7.458ZM36.868,125.246,59.825,132.7,87.216,217,73.027,236.523,36.868,186.759ZM150,268.952,91.5,249.944l14.19-19.529h88.627L208.5,249.943Zm76.973-32.429L212.789,217,240.175,132.7l22.957-7.458v61.513Z"/>
</svg>
