<svg xmlns="http://www.w3.org/2000/svg" viewBox="0 0 300 300">

  <path d="M269.161,74.613,155.708,9.111a11.412,11.412,0,0,0-11.416,0L30.839,74.613A11.415,11.415,0,0,0,25.131,84.5v131a11.415,11.415,0,0,0,5.708,9.886l113.453,65.5a11.412,11.412,0,0,0,11.416,0l113.453-65.5a11.415,11.415,0,0,0,5.708-9.886V84.5A11.415,11.415,0,0,0,269.161,74.613ZM150,32.18,240.619,84.5H59.381ZM76.094,107.329H223.907L150,235.34Zm-28.131-3.06,90.621,156.96L47.963,208.91ZM161.417,261.228l90.62-156.957V208.91Z"/>
</svg>
