<svg height="300" viewBox="0 0 300 300" width="300" xmlns="http://www.w3.org/2000/svg"><path d="m290.3 200.984-130.924-188.455c-.069-.1-.165-.169-.237-.265a11.414 11.414 0 0 0 -1.4-1.566c-.206-.191-.426-.358-.645-.533a11.518 11.518 0 0 0 -1.404-.965c-.248-.143-.492-.282-.75-.407a11.446 11.446 0 0 0 -1.685-.639c-.235-.07-.459-.161-.7-.216a10.63 10.63 0 0 0 -5.113 0c-.239.055-.462.146-.7.216a11.29 11.29 0 0 0 -1.687.639c-.258.124-.5.264-.748.407a11.471 11.471 0 0 0 -1.409.966c-.218.175-.438.34-.643.531a11.443 11.443 0 0 0 -1.4 1.567c-.071.1-.167.166-.236.265l-130.914 188.455a11.413 11.413 0 0 0 3.8 16.472l130.915 73.383c.128.072.272.1.4.161a11.22 11.22 0 0 0 1.861.749c.23.07.452.157.685.212a10.477 10.477 0 0 0 5.264 0c.233-.055.455-.142.685-.212a11.22 11.22 0 0 0 1.861-.749c.13-.066.274-.089.4-.161l130.924-73.383a11.413 11.413 0 0 0 3.8-16.472zm-151.716-145.501v205.911l-102.954-57.709zm22.832 205.911v-205.911l102.954 148.2z" fill="#201d1d"/></svg>