<svg id="Layer_1" data-name="Layer 1" xmlns="http://www.w3.org/2000/svg" width="300" height="300" viewBox="0 0 300 300">
  <defs>
    <style>
      .cls-1 {
        fill: #201d1d;
      }
    </style>
  </defs>
  <path class="cls-1" d="M274.806,84.034a11.255,11.255,0,0,0-.268-2.023c-.057-.253-.1-.5-.174-.752a11.354,11.354,0,0,0-.936-2.252c-.043-.079-.066-.167-.111-.245l0-.01a11.344,11.344,0,0,0-1.623-2.117c-.166-.173-.351-.32-.527-.483a11.208,11.208,0,0,0-1.659-1.275c-.124-.078-.216-.191-.344-.264l-113.45-65.5a11.412,11.412,0,0,0-11.416,0L30.841,74.613c-.129.074-.221.187-.346.266a11.284,11.284,0,0,0-1.666,1.28c-.171.158-.351.3-.511.469a11.28,11.28,0,0,0-1.633,2.124c0,.007-.006.015-.01.023-.026.044-.039.094-.064.139a11.4,11.4,0,0,0-.98,2.359c-.07.235-.111.474-.165.715a11.31,11.31,0,0,0-.274,2.061c-.006.153-.059.3-.059.45v131a11.413,11.413,0,0,0,5.708,9.886l113.452,65.5c.132.076.28.1.414.171a11.225,11.225,0,0,0,1.923.794c.232.073.456.158.692.215a10.432,10.432,0,0,0,5.359,0c.235-.057.459-.142.691-.215a11.2,11.2,0,0,0,1.924-.794c.134-.071.282-.1.413-.171l113.45-65.5a11.409,11.409,0,0,0,5.708-9.886V84.5C274.867,84.34,274.812,84.192,274.806,84.034ZM150,32.18l90.7,52.365L150,137.4,59.3,84.545ZM47.964,104.363l90.622,52.808V261.229L47.964,208.91ZM161.417,261.229V157.17l90.619-52.807V208.91Z"/>
</svg>
