<svg id="Layer_1" data-name="Layer 1" xmlns="http://www.w3.org/2000/svg" width="300" height="300" viewBox="0 0 300 300">
  <defs>
    <style>
      .cls-1 {
        fill: #201d1d;
      }
    </style>
  </defs>
  <path class="cls-1" d="M288.935,141.925,158.079,11.068a11.537,11.537,0,0,0-1.751-1.431c-.271-.181-.565-.3-.847-.46a11.311,11.311,0,0,0-1.117-.588,11.463,11.463,0,0,0-1.14-.354c-.33-.1-.647-.225-.989-.293a11.437,11.437,0,0,0-4.47,0c-.342.068-.659.2-.989.293a11.463,11.463,0,0,0-1.14.354,11.311,11.311,0,0,0-1.117.588c-.282.156-.576.279-.847.46a11.537,11.537,0,0,0-1.751,1.431L11.065,141.925a11.411,11.411,0,0,0,0,16.142L141.921,288.926a11.462,11.462,0,0,0,1.731,1.421c.153.1.324.167.481.261a11.3,11.3,0,0,0,1.481.791c.218.09.452.132.675.21a11.523,11.523,0,0,0,1.454.442,11.334,11.334,0,0,0,4.514,0,11.523,11.523,0,0,0,1.454-.442c.223-.078.457-.12.675-.21a11.3,11.3,0,0,0,1.481-.791c.157-.094.328-.159.481-.261a11.462,11.462,0,0,0,1.731-1.421L288.935,158.067A11.411,11.411,0,0,0,288.935,141.925ZM161.416,46.693l94.289,94.287-94.289,42.912Zm-22.832,137.2L44.3,140.98l94.289-94.287Zm0,25.083V253.3L57.235,171.952Zm22.832,0,81.349-37.023L161.416,253.3Z"/>
</svg>
