<svg xmlns="http://www.w3.org/2000/svg" width="610" height="412" viewBox="0 0 610 412">
  <defs>
    <linearGradient id="mainGradient" gradientTransform="rotate(-7)">
      <stop stop-color="#ef34ae" offset="0%"/>
      <stop stop-color="#213885" offset="70%"/>
      <stop stop-color="#4ebaf7" offset="120%"/>
    </linearGradient>   
    <linearGradient id="darkGradient" gradientTransform="rotate(-7)">
      <stop stop-color="#fe40bb" offset="0%"/>
      <stop stop-color="#febcf7" offset="50%"/>
      <stop stop-color="#73ddf8" offset="80%"/>
    </linearGradient>   
    
    <!-- <linearGradient id="mainGradientAnimated" gradientTransform="rotate(-7)"> 
      <stop offset="0%" stop-color="#ef34ae">
      <animate 
        attributeName="stop-color" 
        values="#ef34ae; #213885; #4ebaf7; #213885; #ef34ae" 
        dur="4000ms" 
        repeatCount="indefinite" 
        ></animate>
      </stop>

      <stop offset="70%" stop-color="#213885">
      <animate 
        attributeName="stop-color"
        values="#213885; #4ebaf7; #213885; #ef34ae; #213885"
        dur="4000ms"
        repeatCount="indefinite"
        ></animate>
      </stop>

      <stop offset="120%" stop-color="#4ebaf7">
      <animate 
        attributeName="stop-color"
        values="#4ebaf7; #213885; #ef34ae; #213885; #4ebaf7;"
        dur="4000ms"
        repeatCount="indefinite"
        ></animate>
  
      </stop>
    </linearGradient>  -->

  </defs>

  <g>
    <path d="M582.521,14.644A53.06,53.06,0,0,0,534.165,8.1L485.372,25.576a28.256,28.256,0,0,1-9.592,1.663H134.22a28.286,28.286,0,0,1-9.595-1.663L75.835,8.1A52.964,52.964,0,0,0,5,57.929V326.753a53.045,53.045,0,0,0,35.094,49.826l76.254,27.315A52.884,52.884,0,0,0,134.22,407H475.78a52.854,52.854,0,0,0,17.869-3.106L569.9,376.579A53.044,53.044,0,0,0,605,326.753V57.929A52.981,52.981,0,0,0,582.521,14.644Zm-443.113,37.1H470.592V382.491H139.408ZM29.524,326.753V57.929A28.512,28.512,0,0,1,57.873,29.465a28.664,28.664,0,0,1,9.688,1.705l47.323,16.954V377.332L48.366,353.506A28.482,28.482,0,0,1,29.524,326.753Zm550.952,0a28.481,28.481,0,0,1-18.845,26.753l-66.515,23.825V48.123L542.439,31.17a28.437,28.437,0,0,1,38.037,26.759Z"/>
    <path d="M432.992,136.366,311.131,66.01a12.254,12.254,0,0,0-12.262,0L177.008,136.366a12.261,12.261,0,0,0-6.131,10.618V287.7a12.261,12.261,0,0,0,6.131,10.618l121.861,70.356a12.254,12.254,0,0,0,12.262,0l121.861-70.356a12.261,12.261,0,0,0,6.131-10.618V146.984A12.261,12.261,0,0,0,432.992,136.366ZM305,90.788l97.335,56.2H207.665Zm-79.384,80.719H384.385L305,309.005ZM195.4,168.22l97.338,168.593-97.338-56.2ZM317.263,336.813,414.6,168.222v112.4Z"/>
  </g>
</svg>
