<svg xmlns="http://www.w3.org/2000/svg"  viewBox="0 0 300 300">

    <path class="cls-1" d="M123.579,264.816H55.8a11.5,11.5,0,0,1-11.5-11.5V46.684a11.5,11.5,0,0,1,11.5-11.5h67.784a11.5,11.5,0,1,1,0,23H67.3V241.816h56.284a11.5,11.5,0,1,1,0,23Z"/>
    <path class="cls-1" d="M225.419,161.5H102.262a11.5,11.5,0,0,1,0-23H225.419a11.5,11.5,0,0,1,0,23Z"/>
    <path class="cls-1" d="M171.815,232.054a11.5,11.5,0,0,1-8.132-19.632l64.258-64.258L167.355,87.578a11.5,11.5,0,0,1,16.264-16.264l68.717,68.718a11.5,11.5,0,0,1,0,16.264l-72.389,72.39A11.468,11.468,0,0,1,171.815,232.054Z"/>
</svg>
