<svg xmlns="http://www.w3.org/2000/svg" viewBox="0 0 300 300">
  <path class="cls-1" d="M249.737,152.422a43.166,43.166,0,0,0-39.229-76.458A64.463,64.463,0,0,0,89.66,75.538a43.167,43.167,0,0,0-39.4,76.392A64.228,64.228,0,0,0,9.449,211.658a11.5,11.5,0,1,0,23,0,41.126,41.126,0,0,1,58.933-37.082,101.31,101.31,0,0,0-42.746,82.652,11.5,11.5,0,1,0,23,0,78.364,78.364,0,0,1,156.728,0,11.5,11.5,0,0,0,23,0,101.3,101.3,0,0,0-42.359-82.37,41.174,41.174,0,0,1,58.546,37.292,11.5,11.5,0,1,0,23,0A64.229,64.229,0,0,0,249.737,152.422ZM246.6,116.1a20.175,20.175,0,0,1-38.128,9.215,64.022,64.022,0,0,0,5.952-25.42A20.149,20.149,0,0,1,246.6,116.1ZM150,56.747a41.523,41.523,0,1,1-40.853,34.4A41.531,41.531,0,0,1,150,56.747ZM73.585,95.423A20.059,20.059,0,0,1,85.561,99.4a64.025,64.025,0,0,0,5.849,25.668A20.183,20.183,0,1,1,73.585,95.423ZM114.5,162.284a64.038,64.038,0,0,0-17.6-10.354,43.492,43.492,0,0,0,8.532-7.191,64.588,64.588,0,0,0,21.669,13.732A100.552,100.552,0,0,0,114.5,162.284Zm58.389-3.813a64.594,64.594,0,0,0,21.43-13.5,43.531,43.531,0,0,0,8.773,7.457,63.963,63.963,0,0,0-17.142,9.963c-.02.016-.036.034-.056.05A100.5,100.5,0,0,0,172.892,158.471Z"/>
</svg>
