<svg xmlns="http://www.w3.org/2000/svg" viewBox="0 0 300 300">

    <path  d="M195.446,115.168a11.5,11.5,0,0,0-11.5,11.5V157.2a11.5,11.5,0,1,0,23,0V126.668A11.5,11.5,0,0,0,195.446,115.168Z"/>
    <path  d="M104.554,115.168a11.5,11.5,0,0,0-11.5,11.5V157.2a11.5,11.5,0,0,0,23,0V126.668A11.5,11.5,0,0,0,104.554,115.168Z"/>
    <path  d="M158.132,180.7a11.5,11.5,0,0,0-16.264,0l-10.274,10.275a11.5,11.5,0,0,0,16.265,16.261l2.141-2.14,2.141,2.14a11.5,11.5,0,0,0,16.265-16.261Z"/>
    <path  d="M150,7.731A125.29,125.29,0,0,0,69.943,229.4v36.819a23.527,23.527,0,0,0,23.5,23.5h112.93a23.527,23.527,0,0,0,23.5-23.5V229.551A125.292,125.292,0,0,0,150,7.731Zm61.456,207.06a11.5,11.5,0,0,0-4.583,9.188v42.236a.541.541,0,0,1-.5.5H184.5V247.1a11.5,11.5,0,0,0-23,0v19.619h-22.78V247.1a11.5,11.5,0,0,0-23,0v19.619H93.443a.542.542,0,0,1-.5-.5V223.838a11.5,11.5,0,0,0-4.564-9.173,102.287,102.287,0,1,1,123.077.126Z"/>

</svg>
