<svg xmlns="http://www.w3.org/2000/svg" viewBox="0 0 100 100">
  <defs>
    <style>
      path{
        fill: none;
      }
      polyline {
        fill: none;
        stroke-linecap: round;
        stroke-linejoin: round;
      }
    </style>
  </defs>
    <g>
      <path d="M89.328,25.106,51.884,3.488a3.768,3.768,0,0,0-3.768,0L10.672,25.106a3.767,3.767,0,0,0-1.884,3.263V71.606a3.766,3.766,0,0,0,1.884,3.262L48.116,96.487a3.767,3.767,0,0,0,3.768,0L89.328,74.868a3.766,3.766,0,0,0,1.884-3.262V28.369A3.767,3.767,0,0,0,89.328,25.106Z"/>
      <polyline points="20.098 32.353 80.491 32.431 49.986 85.197 19.507 32.302 13.157 28.729 49.909 7.472 86.825 28.729 86.843 71.262 49.991 92.528 13.165 71.177 13.157 28.729"/>
    </g>
</svg>
