<svg xmlns="http://www.w3.org/2000/svg" viewBox="0 0 300 300">
  <path d="M261.311,130.579c.121-.162.247-.321.36-.49s.2-.333.3-.5.19-.306.275-.466.168-.345.25-.518.162-.331.233-.5.125-.339.186-.509.137-.366.194-.554c.051-.169.088-.34.131-.511.049-.193.1-.384.142-.58s.062-.394.09-.592c.025-.173.058-.344.075-.52q.054-.544.055-1.09c0-.015,0-.029,0-.044V50.634a11.5,11.5,0,0,0-11.5-11.5H179.04c-.059,0-.117.008-.176.009-.318,0-.637.017-.954.048-.19.018-.375.053-.562.081s-.368.048-.55.084c-.206.04-.405.1-.606.148-.162.041-.325.076-.486.125-.195.059-.384.132-.575.2-.163.059-.327.112-.488.179-.177.073-.346.158-.518.24s-.338.154-.5.242-.318.187-.476.282-.331.19-.49.3-.333.242-.5.366c-.135.1-.275.2-.407.3q-.423.348-.81.733c-.011.01-.022.018-.033.029L65.725,147.686,44.278,126.239A11.5,11.5,0,1,0,28.015,142.5l29.578,29.578,3.95,3.95L26.878,210.7a11.5,11.5,0,0,0,0,16.264l48.906,48.9a11.5,11.5,0,0,0,16.264,0L126.712,241.2l3.949,3.949,29.578,29.579A11.5,11.5,0,0,0,176.5,258.464l-21.446-21.446L260.24,131.835c.012-.012.021-.024.033-.036q.382-.386.728-.806C261.112,130.859,261.207,130.717,261.311,130.579ZM83.916,251.469,51.274,218.827,77.806,192.3l32.642,32.642Zm34.607-50.985,84.2-84.2a11.5,11.5,0,0,0-16.263-16.264l-84.2,84.2L81.988,163.949,183.8,62.134h56.8v56.8L138.793,220.754Z"/>
</svg>
